<?xml version="1.0" encoding="utf-8"?>
<!-- Generator: Adobe Illustrator 25.0.0, SVG Export Plug-In . SVG Version: 6.00 Build 0)  -->
<svg version="1.1" id="Layer_1" xmlns="http://www.w3.org/2000/svg" xmlns:xlink="http://www.w3.org/1999/xlink" x="0px" y="0px"
	 viewBox="0 0 334.26 133.31" style="enable-background:new 0 0 334.26 133.31;" xml:space="preserve">
<style type="text/css">
	.st0{fill:#FF5A60;}
</style>
<g>
	<g>
		<g>
			<path class="st0" d="M114.41,50.67c4.32-4.25,9.6-6.38,15.83-6.38c6.23,0,11.51,2.13,15.83,6.38c4.32,4.25,6.48,9.42,6.48,15.5
				c0,6.08-2.16,11.25-6.48,15.51c-4.32,4.26-9.6,6.4-15.83,6.4c-6.23,0-11.51-2.13-15.83-6.4c-4.32-4.26-6.48-9.43-6.48-15.51
				C107.93,60.09,110.09,54.92,114.41,50.67z M119.54,76.85c2.99,2.99,6.55,4.49,10.69,4.49c4.13,0,7.69-1.5,10.69-4.49
				c2.99-2.99,4.49-6.55,4.49-10.69c0-4.27-1.48-7.87-4.44-10.79c-2.96-2.92-6.53-4.38-10.72-4.38c-4.19,0-7.77,1.46-10.74,4.38
				c-2.97,2.92-4.45,6.52-4.45,10.79C115.05,70.3,116.55,73.86,119.54,76.85z"/>
			<path class="st0" d="M215.32,84.5v-0.37c-2.87,2.64-6.61,3.95-11.22,3.95c-4.28,0-7.99-1.57-11.12-4.71
				c-3.05-3.06-4.81-7.27-4.8-11.59c0-4.48,1.57-8.31,4.7-11.49c3.14-3.18,6.88-4.77,11.22-4.77c4.63,0,8.37,1.32,11.22,3.95v-0.13
				c0-1.98,1.6-3.58,3.58-3.58h0c1.98,0,3.58,1.6,3.58,3.58V84.5c0,1.98-1.6,3.58-3.58,3.58h0
				C216.93,88.08,215.32,86.47,215.32,84.5z M205.24,81.34c2.83,0,5.21-0.9,7.16-2.69c1.95-1.79,2.92-4.08,2.92-6.86
				c0-2.78-0.97-5.06-2.92-6.86c-1.95-1.79-4.33-2.69-7.16-2.69c-2.78,0-5.12,0.9-7.04,2.69c-1.91,1.79-2.87,4.08-2.87,6.86
				c0,2.78,0.96,5.06,2.87,6.86C200.12,80.45,202.46,81.34,205.24,81.34z"/>
			<path class="st0" d="M268.11,49.32c0-1.16,0.41-2.17,1.23-3.03c0.82-0.85,1.8-1.28,2.94-1.28c1.16,0,2.17,0.43,3.01,1.28
				c0.84,0.85,1.26,1.86,1.26,3.03c0,1.12-0.42,2.09-1.26,2.92c-0.84,0.83-1.85,1.25-3.01,1.25c-1.12,0-2.09-0.42-2.92-1.25
				C268.53,51.41,268.11,50.43,268.11,49.32z"/>
			<path class="st0" d="M268.68,83.68V59.92c0-1.98,1.6-3.58,3.58-3.58l0,0c1.98,0,3.58,1.6,3.58,3.58v23.76
				c0,1.98-1.6,3.58-3.58,3.58l0,0C270.28,87.26,268.68,85.65,268.68,83.68z"/>
			<path class="st0" d="M303.52,87.26L303.52,87.26c-0.97,0-1.9-0.4-2.57-1.11l-11.78-12.47v9.99c0,1.98-1.6,3.58-3.58,3.58l0,0
				c-1.98,0-3.58-1.6-3.58-3.58V47.13c0-1.98,1.6-3.58,3.58-3.58l0,0c1.98,0,3.58,1.6,3.58,3.58v22.25l10.56-11.86
				c0.67-0.75,1.63-1.18,2.64-1.18l0,0c3.05,0,4.67,3.61,2.63,5.88l-8.24,9.22l9.33,9.86C308.21,83.55,306.62,87.26,303.52,87.26z"
				/>
		</g>
		<path class="st0" d="M180.7,87.26L180.7,87.26c-0.97,0-1.9-0.4-2.57-1.11l-11.78-12.47v9.99c0,1.98-1.6,3.58-3.58,3.58h0
			c-1.98,0-3.58-1.6-3.58-3.58V47.13c0-1.98,1.6-3.58,3.58-3.58h0c1.98,0,3.58,1.6,3.58,3.58v22.25l10.56-11.86
			c0.67-0.75,1.63-1.18,2.64-1.18h0c3.05,0,4.67,3.61,2.63,5.88l-8.24,9.22l9.33,9.86C185.4,83.55,183.8,87.26,180.7,87.26z"/>
		<path class="st0" d="M255.77,84.5v-0.37c-2.87,2.64-6.61,3.95-11.22,3.95c-4.28,0-7.99-1.57-11.12-4.71
			c-3.05-3.06-4.81-7.27-4.8-11.59c0-4.48,1.57-8.31,4.7-11.49c3.14-3.18,6.88-4.77,11.22-4.77c4.63,0,8.37,1.32,11.22,3.95v-0.13
			c0-1.98,1.6-3.58,3.58-3.58l0,0c1.98,0,3.58,1.6,3.58,3.58V84.5c0,1.98-1.6,3.58-3.58,3.58l0,0
			C257.37,88.08,255.77,86.47,255.77,84.5z M245.69,81.34c2.83,0,5.21-0.9,7.16-2.69c1.95-1.79,2.92-4.08,2.92-6.86
			c0-2.78-0.97-5.06-2.92-6.86c-1.95-1.79-4.33-2.69-7.16-2.69c-2.78,0-5.12,0.9-7.04,2.69c-1.91,1.79-2.87,4.08-2.87,6.86
			c0,2.78,0.96,5.06,2.87,6.86C240.56,80.45,242.91,81.34,245.69,81.34z"/>
		<path class="st0" d="M46.41,55.28c-1.36,0-2.47-1.11-2.47-2.47v-9.75c0-1.36,1.11-2.47,2.47-2.47h26.85
			c1.36,0,2.47,1.11,2.47,2.47v9.75c0,1.36-1.11,2.47-2.47,2.47H46.41z"/>
		<path class="st0" d="M37.75,74.89c-1.44,0-2.6-1.17-2.6-2.6V62.8c0-1.44,1.17-2.6,2.6-2.6h44.89c1.44,0,2.6,1.17,2.6,2.6v9.49
			c0,1.44-1.17,2.6-2.6,2.6H37.75z"/>
		<circle class="st0" cx="59.83" cy="32.45" r="4.77"/>
		<g>
			<path class="st0" d="M59.63,105.1c-12.57,0-24.45-5.23-32.92-14.43c-0.82-0.89-0.72-2.3,0.21-3.08l9.02-7.53
				c0.86-0.72,2.12-0.64,2.9,0.17c5.43,5.67,12.9,8.88,20.8,8.88c7.9,0,15.37-3.21,20.8-8.88c0.77-0.81,2.04-0.89,2.9-0.17
				l9.02,7.53c0.93,0.78,1.03,2.18,0.21,3.08C84.07,99.87,72.2,105.1,59.63,105.1z"/>
		</g>
	</g>
</g>
</svg>
